<svg width="49" height="47" viewBox="0 0 49 47" fill="none" xmlns="http://www.w3.org/2000/svg">
<g filter="url(#filter0_d)">
<path d="M25.0956 3.32373L30.3209 13.9007C30.3633 13.9864 30.4259 14.0605 30.5033 14.1166C30.5807 14.1727 30.6707 14.2091 30.7653 14.2227L42.4492 15.9227C42.5581 15.9386 42.6605 15.9846 42.7447 16.0556C42.8289 16.1265 42.8916 16.2195 42.9256 16.3242C42.9596 16.4288 42.9637 16.5409 42.9374 16.6477C42.911 16.7545 42.8553 16.8519 42.7765 16.9287L34.3219 25.1617C34.2533 25.2284 34.202 25.3108 34.1723 25.4017C34.1427 25.4927 34.1356 25.5895 34.1518 25.6837L36.1478 37.3087C36.1663 37.4171 36.1541 37.5285 36.1126 37.6303C36.0711 37.7321 36.002 37.8203 35.913 37.885C35.824 37.9497 35.7187 37.9882 35.609 37.9963C35.4992 38.0044 35.3894 37.9817 35.2919 37.9307L24.8413 32.4417C24.7566 32.3972 24.6623 32.374 24.5665 32.374C24.4708 32.374 24.3765 32.3972 24.2918 32.4417L13.8412 37.9307C13.7437 37.9817 13.6339 38.0044 13.5241 37.9963C13.4144 37.9882 13.3091 37.9497 13.2201 37.885C13.1311 37.8203 13.0619 37.7321 13.0205 37.6303C12.979 37.5285 12.9668 37.4171 12.9853 37.3087L14.9813 25.6837C14.9975 25.5895 14.9905 25.4927 14.9608 25.4017C14.9312 25.3108 14.8798 25.2284 14.8112 25.1617L6.3596 16.9247C6.28079 16.8479 6.22508 16.7505 6.19874 16.6437C6.17239 16.5369 6.17645 16.4248 6.2105 16.3202C6.24454 16.2155 6.30722 16.1225 6.3914 16.0516C6.47559 15.9806 6.57795 15.9346 6.68693 15.9187L18.3718 14.2227C18.4664 14.209 18.5563 14.1725 18.6337 14.1165C18.7111 14.0604 18.7738 13.9863 18.8162 13.9007L24.0415 3.32373C24.0908 3.22636 24.1662 3.14455 24.2592 3.0874C24.3522 3.03025 24.4593 3 24.5685 3C24.6778 3 24.7849 3.03025 24.8779 3.0874C24.9709 3.14455 25.0463 3.22636 25.0956 3.32373Z" fill="#E4E0CF"/>
</g>
<path d="M24.7751 5.79785L20.0703 14.9099C19.9488 15.145 19.7699 15.3458 19.5502 15.4937C19.3304 15.6416 19.0769 15.7317 18.8131 15.7559L8.58875 16.6878L19.3917 17.1878C19.7261 17.2035 20.0568 17.1124 20.3359 16.9278C20.6151 16.7432 20.8281 16.4745 20.9442 16.1609L24.7751 5.79785Z" fill="#EFEDE4"/>
<path d="M12.8772 35.9427L12.645 37.2958C12.6276 37.4051 12.6407 37.5171 12.6831 37.6194C12.7254 37.7217 12.7953 37.8103 12.8849 37.8755C12.9745 37.9406 13.0804 37.9796 13.1909 37.9883C13.3014 37.997 13.4121 37.9751 13.5109 37.9248L24.0796 32.3737C24.1653 32.3291 24.2606 32.3057 24.3574 32.3057C24.4541 32.3057 24.5494 32.3291 24.6351 32.3737L35.2038 37.9248C35.3026 37.9751 35.4133 37.997 35.5238 37.9883C35.6343 37.9796 35.7402 37.9406 35.8298 37.8755C35.9195 37.8103 35.9893 37.7217 36.0316 37.6194C36.074 37.5171 36.0872 37.4051 36.0697 37.2958L34.0517 25.5388C34.0355 25.4435 34.0427 25.3457 34.0725 25.2538C34.1023 25.1619 34.1539 25.0785 34.2229 25.0108L42.7735 16.6848C42.8519 16.6065 42.907 16.5082 42.9329 16.4006C42.9588 16.2931 42.9544 16.1804 42.9203 16.0752C42.8861 15.9699 42.8234 15.8762 42.7392 15.8043C42.655 15.7324 42.5525 15.6851 42.4432 15.6678L38.4852 15.0928C32.0847 26.5698 22.2818 32.6127 12.8772 35.9427Z" fill="#D6D3CB"/>
<defs>
<filter id="filter0_d" x="0.18158" y="0" width="48.7729" height="46.9979" filterUnits="userSpaceOnUse" color-interpolation-filters="sRGB">
<feFlood flood-opacity="0" result="BackgroundImageFix"/>
<feColorMatrix in="SourceAlpha" type="matrix" values="0 0 0 0 0 0 0 0 0 0 0 0 0 0 0 0 0 0 127 0" result="hardAlpha"/>
<feOffset dy="3"/>
<feGaussianBlur stdDeviation="3"/>
<feColorMatrix type="matrix" values="0 0 0 0 0 0 0 0 0 0 0 0 0 0 0 0 0 0 0.22 0"/>
<feBlend mode="normal" in2="BackgroundImageFix" result="effect1_dropShadow"/>
<feBlend mode="normal" in="SourceGraphic" in2="effect1_dropShadow" result="shape"/>
</filter>
</defs>
</svg>
